<?xml version="1.0" encoding="utf-8"?>
<!DOCTYPE svg PUBLIC "-//W3C//DTD SVG 1.1//EN" "http://www.w3.org/Graphics/SVG/1.1/DTD/svg11.dtd">
<svg version="1.1" xmlns="http://www.w3.org/2000/svg" xmlns:xlink="http://www.w3.org/1999/xlink" x="0px" y="0px" viewBox="0 0 1000 1000" enable-background="new 0 0 1000 1000" xml:space="preserve">
<g><g transform="translate(0.000000,511.000000) scale(0.100000,-0.100000)">
<path fill="#2C974B" d="M4627.9,4997.8c-783-81.8-1539.5-415-2122.1-932.3c-472.3-419.1-848.4-977.2-1052.9-1564c-392.5-1128.5-241.2-2291.8,449.8-3451c300.5-502.9,697.2-1005.9,1543.5-1954.5c711.5-797.3,1220.5-1425,1443.4-1778.7c92-143.1,128.8-143.1,220.8,0c229,363.9,707.4,954.8,1465.8,1809.3c703.3,793.2,954.8,1097.9,1241,1494.5c707.4,989.5,1030.4,2040.3,922.1,3019.6c-184,1686.7-1441.3,3031.9-3103.4,3318.1C5361.9,5005.9,4881.4,5024.3,4627.9,4997.8z M5588.8,3435.8c731.9-204.4,1326.9-772.8,1553.8-1484.3c83.8-259.6,112.4-480.4,100.2-776.9c-14.3-345.5-75.6-601.1-218.8-891.4C6727.5-326,6210.3-745.1,5533.6-927c-173.8-45-237.2-51.1-533.6-51.1c-296.4,0-359.8,6.1-533.6,51.1C3789.7-745.1,3272.4-326,2976,283.3c-141.1,286.2-204.4,545.9-218.8,881.2c-12.3,296.4,8.2,462,85.9,736c210.6,721.7,823.9,1328.9,1539.5,1527.2c253.5,67.5,325.1,75.6,678.8,67.5C5347.6,3489,5427.3,3480.8,5588.8,3435.8z"/>
<path fill="#2C974B" d="M4883.5,2583.3c-169.7-83.8-198.3-294.4-59.3-421.2c61.3-57.2,87.9-67.5,175.8-67.5c87.9,0,114.5,10.2,175.8,67.5c139,126.7,108.3,347.5-61.3,425.2C5008.2,2636.4,4987.7,2634.4,4883.5,2583.3z"/>
<path fill="#2C974B" d="M4746.5,1755.3c-6.1-18.4-12.3-429.3-12.3-915.9c0-660.4,6.1-889.3,24.5-907.7c16.4-16.3,100.2-24.5,241.2-24.5c141.1,0,224.9,8.2,241.2,24.5c18.4,18.4,24.5,247.4,24.5,907.7c0,486.6-6.1,897.5-12.3,915.9c-10.2,26.6-53.2,32.7-253.5,32.7C4799.6,1788,4756.7,1781.9,4746.5,1755.3z"/></g></g>
</svg>