<?xml version="1.0" encoding="utf-8"?>
<svg version="1.1" id="Layer_1" xmlns="http://www.w3.org/2000/svg" xmlns:xlink="http://www.w3.org/1999/xlink" x="0px" y="0px"
	 viewBox="0 0 512 512" style="enable-background:new 0 0 512 512;" xml:space="preserve">
<style type="text/css">
	.st0{fill:#333333;}
	.st1{fill:#FFE622;}
</style>
<g>
	<path class="st0" d="M256,0C114.6,0,0,114.6,0,256c0,141.4,114.6,256,256,256c141.4,0,256-114.6,256-256C512,114.6,397.4,0,256,0z
		 M256,468.6c-117.4,0-212.6-95.2-212.6-212.6c0-117.4,95.2-212.6,212.6-212.6c117.4,0,212.6,95.2,212.6,212.6
		C468.6,373.4,373.4,468.6,256,468.6z"/>
	<path class="st1" d="M256,43.4C138.6,43.4,43.4,138.6,43.4,256c0,117.4,95.2,212.6,212.6,212.6c117.4,0,212.6-95.2,212.6-212.6
		C468.6,138.6,373.4,43.4,256,43.4z M128,204c0.3-15.1,12.8-27.2,28-26.9c14.7,0.3,26.6,12.2,26.9,26.9c-0.3,15.1-12.8,27.2-28,26.9
		C140.2,230.6,128.3,218.7,128,204z M256,359.4c-48.9,0-88.9-38.5-91.4-86.6c-0.1-2.5,1.8-4.7,4.3-4.8c0.1,0,0.2,0,0.2,0h27.5
		c2.4,0,4.5,1.8,4.6,4.2c2.2,28.3,25.9,50.6,54.7,50.6s52.6-22.3,54.7-50.6c0.2-2.4,2.2-4.2,4.6-4.2h27.5c2.5,0,4.6,2,4.6,4.6
		c0,0.1,0,0.2,0,0.2C344.9,321,304.9,359.4,256,359.4z M356.6,231.4c-15.1-0.3-27.2-12.8-26.9-28c0.3-14.7,12.2-26.6,26.9-26.9
		c15.1,0.3,27.2,12.8,26.9,28C383.1,219.3,371.3,231.1,356.6,231.4z"/>
	<path class="st0" d="M128,204c0,15.1,12.3,27.4,27.4,27.4s27.4-12.3,27.4-27.4s-12.3-27.4-27.4-27.4S128,188.9,128,204z M342.9,268
		h-27.5c-2.4,0-4.5,1.8-4.6,4.2c-2.1,28.3-25.9,50.6-54.7,50.6s-52.6-22.3-54.7-50.6c-0.2-2.4-2.2-4.2-4.6-4.2h-27.5
		c-2.5,0-4.6,2-4.6,4.6c0,0.1,0,0.2,0,0.2c2.5,48.2,42.6,86.6,91.4,86.6s88.9-38.5,91.4-86.6c0.1-2.5-1.8-4.7-4.3-4.8
		C343,268,342.9,268,342.9,268z M329.1,204c0,15.1,12.3,27.4,27.4,27.4S384,219.1,384,204s-12.3-27.4-27.4-27.4
		S329.1,188.9,329.1,204z"/>
</g>
</svg>